<svg width="60" height="60" viewBox="0 0 60 60" fill="none" xmlns="http://www.w3.org/2000/svg">
<rect width="60" height="60" rx="9" fill="#EBEEFF"/>
<path d="M20.805 21H40.68C42.555 21 43.5 21.885 43.5 23.685V36.315C43.5 38.1 42.555 39 40.68 39H20.805C18.93 39 17.985 38.1 17.985 36.315V23.685C17.985 21.885 18.93 21 20.805 21ZM30.735 33.9L40.845 25.605C41.205 25.305 41.49 24.615 41.04 24C40.605 23.385 39.81 23.37 39.285 23.745L30.735 29.535L22.2 23.745C21.675 23.37 20.88 23.385 20.445 24C19.995 24.615 20.28 25.305 20.64 25.605L30.735 33.9Z" fill="black"/>
</svg>
