<svg width="60" height="60" viewBox="0 0 60 60" fill="none" xmlns="http://www.w3.org/2000/svg">
<rect width="60" height="60" rx="9" fill="#EBEEFF"/>
<path fill-rule="evenodd" clip-rule="evenodd" d="M45 30C45 38.2843 38.2843 45 30 45C21.7157 45 15 38.2843 15 30C15 21.7157 21.7157 15 30 15C38.2843 15 45 21.7157 45 30ZM30.5375 26.0737C29.0786 26.6805 26.1627 27.9365 21.7899 29.8417C21.0798 30.124 20.7078 30.4003 20.674 30.6704C20.6167 31.1269 21.1884 31.3066 21.9668 31.5514C22.0727 31.5847 22.1824 31.6192 22.2949 31.6558C23.0608 31.9047 24.091 32.196 24.6266 32.2075C25.1124 32.218 25.6547 32.0177 26.2533 31.6067C30.3389 28.8488 32.448 27.4548 32.5804 27.4247C32.6738 27.4035 32.8033 27.3769 32.891 27.4548C32.9787 27.5328 32.97 27.6804 32.9608 27.72C32.9041 27.9614 30.6602 30.0476 29.4989 31.1272C29.1369 31.4638 28.8801 31.7025 28.8276 31.757C28.71 31.8792 28.5902 31.9947 28.475 32.1058C27.7635 32.7917 27.2299 33.306 28.5045 34.146C29.117 34.5496 29.6072 34.8834 30.0962 35.2164C30.6302 35.5801 31.1628 35.9428 31.852 36.3946C32.0276 36.5097 32.1953 36.6292 32.3586 36.7457C32.9801 37.1887 33.5384 37.5868 34.2282 37.5233C34.6291 37.4864 35.0431 37.1095 35.2533 35.9854C35.7503 33.3289 36.727 27.5731 36.9528 25.2012C36.9726 24.9934 36.9477 24.7275 36.9277 24.6107C36.9077 24.494 36.866 24.3276 36.7142 24.2045C36.5345 24.0587 36.257 24.0279 36.133 24.0301C35.5688 24.04 34.7032 24.341 30.5375 26.0737Z" fill="black"/>
</svg>
