<svg width="555" height="611" viewBox="0 0 555 611" fill="none" xmlns="http://www.w3.org/2000/svg">
<circle cx="277.5" cy="277.5" r="277.5" fill="#F1F6F7"/>
<circle cx="109.5" cy="501.5" r="109.5" fill="#566AA9"/>
<path d="M107.603 517.134C107.603 513.656 106.663 510.648 104.736 508.204C101.822 504.538 96.135 504.068 92.845 504.82C91.482 497.065 98.062 487.195 106.569 482.965L100.036 473.8C87.205 479.91 74.562 493.916 76.724 511.635C78.087 522.821 84.573 530.2 93.738 530.2C97.733 530.2 101.07 529.025 103.702 526.675C106.334 524.325 107.603 521.129 107.603 517.134ZM145.438 517.134C145.438 513.656 144.498 510.648 142.571 508.204C139.61 504.538 133.97 504.068 130.68 504.82C129.317 497.065 135.897 487.195 144.404 482.965L137.871 473.8C125.04 479.91 112.444 493.916 114.606 511.635C115.969 522.821 122.408 530.2 131.573 530.2C135.568 530.2 138.905 529.025 141.537 526.675C144.169 524.325 145.438 521.129 145.438 517.134Z" fill="#F2F2F2"/>
</svg>
