<svg width="381" height="368" viewBox="0 0 381 368" fill="none" xmlns="http://www.w3.org/2000/svg">
<g filter="url(#filter0_d_25_196)">
<path d="M366 180C366 273.336 287.426 349 190.5 349C93.574 349 15 273.336 15 180C15 86.6639 93.574 11 190.5 11C287.426 11 366 86.6639 366 180Z" fill="#D296D4"/>
</g>
<path d="M133.953 224.315L138.882 229.067L110.368 258.643L129.732 258.289L132.285 265.506L98.3991 266.126L97.7793 232.24L105.085 234.528L105.439 253.891L133.953 224.315Z" fill="white"/>
<path d="M137.896 110.696L129.48 133H126.12L117.704 110.696H120.808L127.816 129.928L134.824 110.696H137.896ZM142.593 112.616C142.038 112.616 141.569 112.424 141.185 112.04C140.801 111.656 140.609 111.187 140.609 110.632C140.609 110.077 140.801 109.608 141.185 109.224C141.569 108.84 142.038 108.648 142.593 108.648C143.126 108.648 143.574 108.84 143.937 109.224C144.321 109.608 144.513 110.077 144.513 110.632C144.513 111.187 144.321 111.656 143.937 112.04C143.574 112.424 143.126 112.616 142.593 112.616ZM144.001 115.464V133H141.089V115.464H144.001ZM164.964 123.56C164.964 124.115 164.932 124.701 164.868 125.32H150.852C150.959 127.048 151.545 128.403 152.612 129.384C153.7 130.344 155.012 130.824 156.548 130.824C157.807 130.824 158.852 130.536 159.684 129.96C160.537 129.363 161.135 128.573 161.476 127.592H164.612C164.143 129.277 163.204 130.653 161.796 131.72C160.388 132.765 158.639 133.288 156.548 133.288C154.884 133.288 153.391 132.915 152.068 132.168C150.767 131.421 149.743 130.365 148.996 129C148.249 127.613 147.876 126.013 147.876 124.2C147.876 122.387 148.239 120.797 148.964 119.432C149.689 118.067 150.703 117.021 152.004 116.296C153.327 115.549 154.841 115.176 156.548 115.176C158.212 115.176 159.684 115.539 160.964 116.264C162.244 116.989 163.225 117.992 163.908 119.272C164.612 120.531 164.964 121.96 164.964 123.56ZM161.956 122.952C161.956 121.843 161.711 120.893 161.22 120.104C160.729 119.293 160.057 118.685 159.204 118.28C158.372 117.853 157.444 117.64 156.42 117.64C154.948 117.64 153.689 118.109 152.644 119.048C151.62 119.987 151.033 121.288 150.884 122.952H161.956ZM192.168 115.464L186.696 133H183.688L179.464 119.08L175.24 133H172.232L166.728 115.464H169.704L173.736 130.184L178.088 115.464H181.064L185.32 130.216L189.288 115.464H192.168ZM210.533 110.696C212.965 110.696 215.066 111.155 216.837 112.072C218.629 112.968 219.994 114.259 220.933 115.944C221.893 117.629 222.373 119.613 222.373 121.896C222.373 124.179 221.893 126.163 220.933 127.848C219.994 129.512 218.629 130.792 216.837 131.688C215.066 132.563 212.965 133 210.533 133H203.589V110.696H210.533ZM210.533 130.6C213.413 130.6 215.61 129.843 217.125 128.328C218.64 126.792 219.397 124.648 219.397 121.896C219.397 119.123 218.629 116.957 217.093 115.4C215.578 113.843 213.392 113.064 210.533 113.064H206.501V130.6H210.533ZM242.214 123.56C242.214 124.115 242.182 124.701 242.118 125.32H228.102C228.209 127.048 228.795 128.403 229.862 129.384C230.95 130.344 232.262 130.824 233.798 130.824C235.057 130.824 236.102 130.536 236.934 129.96C237.787 129.363 238.385 128.573 238.726 127.592H241.862C241.393 129.277 240.454 130.653 239.046 131.72C237.638 132.765 235.889 133.288 233.798 133.288C232.134 133.288 230.641 132.915 229.318 132.168C228.017 131.421 226.993 130.365 226.246 129C225.499 127.613 225.126 126.013 225.126 124.2C225.126 122.387 225.489 120.797 226.214 119.432C226.939 118.067 227.953 117.021 229.254 116.296C230.577 115.549 232.091 115.176 233.798 115.176C235.462 115.176 236.934 115.539 238.214 116.264C239.494 116.989 240.475 117.992 241.158 119.272C241.862 120.531 242.214 121.96 242.214 123.56ZM239.206 122.952C239.206 121.843 238.961 120.893 238.47 120.104C237.979 119.293 237.307 118.685 236.454 118.28C235.622 117.853 234.694 117.64 233.67 117.64C232.198 117.64 230.939 118.109 229.894 119.048C228.87 119.987 228.283 121.288 228.134 122.952H239.206ZM249.61 117.864V128.2C249.61 129.053 249.791 129.661 250.154 130.024C250.516 130.365 251.146 130.536 252.042 130.536H254.186V133H251.562C249.94 133 248.724 132.627 247.914 131.88C247.103 131.133 246.698 129.907 246.698 128.2V117.864H244.426V115.464H246.698V111.048H249.61V115.464H254.186V117.864H249.61ZM256.626 124.168C256.626 122.376 256.989 120.808 257.714 119.464C258.439 118.099 259.431 117.043 260.69 116.296C261.97 115.549 263.389 115.176 264.946 115.176C266.482 115.176 267.815 115.507 268.946 116.168C270.077 116.829 270.919 117.661 271.474 118.664V115.464H274.418V133H271.474V129.736C270.898 130.76 270.034 131.613 268.882 132.296C267.751 132.957 266.429 133.288 264.914 133.288C263.357 133.288 261.949 132.904 260.69 132.136C259.431 131.368 258.439 130.291 257.714 128.904C256.989 127.517 256.626 125.939 256.626 124.168ZM271.474 124.2C271.474 122.877 271.207 121.725 270.674 120.744C270.141 119.763 269.415 119.016 268.498 118.504C267.602 117.971 266.61 117.704 265.522 117.704C264.434 117.704 263.442 117.96 262.546 118.472C261.65 118.984 260.935 119.731 260.402 120.712C259.869 121.693 259.602 122.845 259.602 124.168C259.602 125.512 259.869 126.685 260.402 127.688C260.935 128.669 261.65 129.427 262.546 129.96C263.442 130.472 264.434 130.728 265.522 130.728C266.61 130.728 267.602 130.472 268.498 129.96C269.415 129.427 270.141 128.669 270.674 127.688C271.207 126.685 271.474 125.523 271.474 124.2ZM280.843 112.616C280.288 112.616 279.819 112.424 279.435 112.04C279.051 111.656 278.859 111.187 278.859 110.632C278.859 110.077 279.051 109.608 279.435 109.224C279.819 108.84 280.288 108.648 280.843 108.648C281.376 108.648 281.824 108.84 282.187 109.224C282.571 109.608 282.763 110.077 282.763 110.632C282.763 111.187 282.571 111.656 282.187 112.04C281.824 112.424 281.376 112.616 280.843 112.616ZM282.251 115.464V133H279.339V115.464H282.251ZM290.126 109.32V133H287.214V109.32H290.126ZM132.584 169.48C133.885 169.757 134.931 170.408 135.72 171.432C136.509 172.435 136.904 173.587 136.904 174.888C136.904 176.765 136.243 178.259 134.92 179.368C133.619 180.456 131.795 181 129.448 181H118.984V158.536H129.096C131.379 158.536 133.16 159.059 134.44 160.104C135.741 161.149 136.392 162.568 136.392 164.36C136.392 165.683 136.04 166.781 135.336 167.656C134.653 168.531 133.736 169.139 132.584 169.48ZM124.456 167.624H128.04C128.936 167.624 129.619 167.432 130.088 167.048C130.579 166.643 130.824 166.056 130.824 165.288C130.824 164.52 130.579 163.933 130.088 163.528C129.619 163.123 128.936 162.92 128.04 162.92H124.456V167.624ZM128.488 176.584C129.405 176.584 130.109 176.381 130.6 175.976C131.112 175.549 131.368 174.941 131.368 174.152C131.368 173.363 131.101 172.744 130.568 172.296C130.056 171.848 129.341 171.624 128.424 171.624H124.456V176.584H128.488ZM145.55 162.92V167.464H152.878V171.688H145.55V176.616H153.838V181H140.078V158.536H153.838V162.92H145.55ZM162.862 176.776H170.03V181H157.39V158.536H162.862V176.776ZM183.264 181.224C181.152 181.224 179.211 180.733 177.44 179.752C175.691 178.771 174.294 177.405 173.248 175.656C172.224 173.885 171.712 171.901 171.712 169.704C171.712 167.507 172.224 165.533 173.248 163.784C174.294 162.035 175.691 160.669 177.44 159.688C179.211 158.707 181.152 158.216 183.264 158.216C185.376 158.216 187.307 158.707 189.056 159.688C190.827 160.669 192.214 162.035 193.216 163.784C194.24 165.533 194.752 167.507 194.752 169.704C194.752 171.901 194.24 173.885 193.216 175.656C192.192 177.405 190.806 178.771 189.056 179.752C187.307 180.733 185.376 181.224 183.264 181.224ZM183.264 176.232C185.056 176.232 186.486 175.635 187.552 174.44C188.64 173.245 189.184 171.667 189.184 169.704C189.184 167.72 188.64 166.141 187.552 164.968C186.486 163.773 185.056 163.176 183.264 163.176C181.451 163.176 180 163.763 178.912 164.936C177.846 166.109 177.312 167.699 177.312 169.704C177.312 171.688 177.846 173.277 178.912 174.472C180 175.645 181.451 176.232 183.264 176.232ZM228.708 158.536L222.853 181H216.229L212.645 166.216L208.933 181H202.309L196.613 158.536H202.469L205.701 174.888L209.701 158.536H215.717L219.557 174.888L222.821 158.536H228.708Z" fill="white"/>
<defs>
<filter id="filter0_d_25_196" x="0" y="0" width="381" height="368" filterUnits="userSpaceOnUse" color-interpolation-filters="sRGB">
<feFlood flood-opacity="0" result="BackgroundImageFix"/>
<feColorMatrix in="SourceAlpha" type="matrix" values="0 0 0 0 0 0 0 0 0 0 0 0 0 0 0 0 0 0 127 0" result="hardAlpha"/>
<feOffset dy="4"/>
<feGaussianBlur stdDeviation="7.5"/>
<feComposite in2="hardAlpha" operator="out"/>
<feColorMatrix type="matrix" values="0 0 0 0 0.690196 0 0 0 0 0.690196 0 0 0 0 0.690196 0 0 0 1 0"/>
<feBlend mode="normal" in2="BackgroundImageFix" result="effect1_dropShadow_25_196"/>
<feBlend mode="normal" in="SourceGraphic" in2="effect1_dropShadow_25_196" result="shape"/>
</filter>
</defs>
</svg>
