<svg width="60" height="60" viewBox="0 0 60 60" fill="none" xmlns="http://www.w3.org/2000/svg">
<rect width="60" height="60" rx="9" fill="#EBEEFF"/>
<path fill-rule="evenodd" clip-rule="evenodd" d="M30 14C21.7125 14 15 21.2404 15 30.1796C15 37.339 19.2937 43.3861 25.2562 45.5299C26.0062 45.6715 26.2875 45.1861 26.2875 44.7614C26.2875 44.3771 26.2688 43.103 26.2688 41.748C22.5 42.4963 21.525 40.757 21.225 39.8469C21.0563 39.3817 20.325 37.9458 19.6875 37.5615C19.1625 37.2581 18.4125 36.5098 19.6687 36.4896C20.85 36.4694 21.6937 37.6626 21.975 38.148C23.325 40.5952 25.4813 39.9075 26.3438 39.4828C26.475 38.4311 26.8687 37.7233 27.3 37.3188C23.9625 36.9143 20.475 35.5188 20.475 29.3301C20.475 27.5706 21.0563 26.1144 22.0125 24.9819C21.8625 24.5774 21.3375 22.919 22.1625 20.6943C22.1625 20.6943 23.4187 20.2696 26.2875 22.3527C27.4875 21.9887 28.7625 21.8066 30.0375 21.8066C31.3125 21.8066 32.5875 21.9887 33.7875 22.3527C36.6562 20.2494 37.9125 20.6943 37.9125 20.6943C38.7375 22.919 38.2125 24.5774 38.0625 24.9819C39.0188 26.1144 39.6 27.5504 39.6 29.3301C39.6 35.539 36.0938 36.9143 32.7563 37.3188C33.3 37.8244 33.7688 38.7952 33.7688 40.312C33.7688 42.476 33.75 44.2153 33.75 44.7614C33.75 45.1861 34.0313 45.6917 34.7812 45.5299C40.7062 43.3861 45 37.3188 45 30.1796C45 21.2404 38.2875 14 30 14Z" fill="#24292E"/>
</svg>
