<svg width="30" height="33" viewBox="0 0 30 33" fill="none" xmlns="http://www.w3.org/2000/svg">
<path fill-rule="evenodd" clip-rule="evenodd" d="M15 0C6.7125 0 0 7.24036 0 16.1796C0 23.339 4.29375 29.3861 10.2562 31.5299C11.0062 31.6715 11.2875 31.1861 11.2875 30.7614C11.2875 30.3771 11.2688 29.103 11.2688 27.748C7.5 28.4963 6.525 26.757 6.225 25.8469C6.05625 25.3817 5.325 23.9458 4.6875 23.5615C4.1625 23.2581 3.4125 22.5098 4.66875 22.4896C5.85 22.4694 6.69375 23.6626 6.975 24.148C8.325 26.5952 10.4813 25.9075 11.3438 25.4828C11.475 24.4311 11.8687 23.7233 12.3 23.3188C8.9625 22.9143 5.475 21.5188 5.475 15.3301C5.475 13.5706 6.05625 12.1144 7.0125 10.9819C6.8625 10.5774 6.3375 8.91899 7.1625 6.6943C7.1625 6.6943 8.41875 6.26958 11.2875 8.3527C12.4875 7.98866 13.7625 7.80664 15.0375 7.80664C16.3125 7.80664 17.5875 7.98866 18.7875 8.3527C21.6563 6.24936 22.9125 6.6943 22.9125 6.6943C23.7375 8.91899 23.2125 10.5774 23.0625 10.9819C24.0188 12.1144 24.6 13.5504 24.6 15.3301C24.6 21.539 21.0938 22.9143 17.7563 23.3188C18.3 23.8244 18.7688 24.7952 18.7688 26.312C18.7688 28.476 18.75 30.2153 18.75 30.7614C18.75 31.1861 19.0313 31.6917 19.7813 31.5299C25.7063 29.3861 30 23.3188 30 16.1796C30 7.24036 23.2875 0 15 0Z" fill="#24292E"/>
</svg>
