<svg width="30" height="30" viewBox="0 0 30 30" fill="none" xmlns="http://www.w3.org/2000/svg">
<path d="M5.80499 6H25.68C27.555 6 28.5 6.885 28.5 8.685V21.315C28.5 23.1 27.555 24 25.68 24H5.80499C3.92999 24 2.98499 23.1 2.98499 21.315V8.685C2.98499 6.885 3.92999 6 5.80499 6ZM15.735 18.9L25.845 10.605C26.205 10.305 26.49 9.615 26.04 9C25.605 8.385 24.81 8.37 24.285 8.745L15.735 14.535L7.19999 8.745C6.67499 8.37 5.87999 8.385 5.44499 9C4.99499 9.615 5.27999 10.305 5.63999 10.605L15.735 18.9Z" fill="black"/>
</svg>
